<?xml version="1.0" encoding="iso-8859-1"?>
<!-- Generator: Adobe Illustrator 19.0.0, SVG Export Plug-In . SVG Version: 6.00 Build 0)  -->
<svg version="1.1" id="Layer_1" xmlns="http://www.w3.org/2000/svg" xmlns:xlink="http://www.w3.org/1999/xlink" x="0px" y="0px"
	 viewBox="0 0 512.004 512.004" style="enable-background:new 0 0 512.004 512.004;" xml:space="preserve">
<polygon style="fill:#E04F5F;" points="308.771,0 176.323,94.736 176.323,135.776 308.771,41.04 441.219,135.776 441.219,94.736 "/>
<polygon style="fill:#25B6D2;" points="198.499,315.456 198.499,147.296 308.771,67.888 419.043,147.296 419.043,315.456 "/>
<path style="fill:#2C3E50;" d="M108.979,362.848v132.16c0,0,60.48-31.68,90.72-16.48c30.24,15.2,113.44,37.12,163.36,32.96
	s130.08-70.24,145.28-92.16c15.2-22.08-19.68-24.8-54.4-6.88c-34.72,17.92-146.72,53.6-199.68,0c0,0,122.56,11.04,127.04,0
	s-13.6-28.96-108.96-49.6C176.979,342.208,108.979,362.848,108.979,362.848z"/>
<rect x="0.005" y="362.848" style="fill:#E04F5F;" width="72.64" height="148.64"/>
<g>
</g>
<g>
</g>
<g>
</g>
<g>
</g>
<g>
</g>
<g>
</g>
<g>
</g>
<g>
</g>
<g>
</g>
<g>
</g>
<g>
</g>
<g>
</g>
<g>
</g>
<g>
</g>
<g>
</g>
</svg>
